<svg width="484" height="309" viewBox="0 0 484 309" fill="none" xmlns="http://www.w3.org/2000/svg">
<g filter="url(#filter0_d_2_8)">
<path d="M470 -7.62939e-06V292.107H388.415L291.932 152.9L229.055 61.7695L217.259 -7.62939e-06L285 1.49999L388.415 152.9H390.697V-7.62939e-06H470Z" fill="#05616A"/>
<path d="M189.833 61.0458C181.492 61.0458 167.167 61.0458 156.469 61.0458C148.49 61.0458 138.352 61.0458 125.515 61.0458C117.337 61.0458 110.634 62.0442 105.404 64.0411C100.269 65.9428 96.4658 68.5577 93.9935 71.8858C91.5213 75.2138 90.2376 79.0173 90.1425 83.2962C89.9523 86.8144 90.5704 89.9999 91.9967 92.8525C93.5181 95.61 95.8952 98.1298 99.1282 100.412C102.361 102.599 106.497 104.596 111.537 106.402C116.577 108.209 122.567 109.826 129.509 111.252L153.47 116.387C169.635 119.81 183.47 124.326 194.976 129.936C206.481 135.547 215.895 142.155 223.217 149.762C230.538 157.274 235.911 165.737 239.334 175.15C242.852 184.564 244.659 194.833 244.754 205.958C244.659 225.166 239.857 241.426 230.348 254.738C220.84 268.05 207.242 278.177 189.556 285.118C171.965 292.06 150.808 295.53 126.085 295.53C100.697 295.53 78.5419 291.775 59.6196 284.263C40.7923 276.751 26.1489 265.198 15.6894 249.603C5.32488 233.914 0.0950869 213.851 0 189.413H75.3089C75.7844 198.352 78.0189 205.863 82.0126 211.949C86.0062 218.035 91.6163 222.646 98.8429 225.784C106.165 228.922 114.865 230.491 124.944 230.491C133.407 230.491 140.491 229.445 146.196 227.353C151.902 225.261 156.228 222.361 159.176 218.653C162.123 214.944 163.645 210.713 163.74 205.958C163.645 201.489 162.171 197.591 159.318 194.263C156.561 190.84 151.997 187.797 145.626 185.134C139.255 182.377 130.65 179.81 119.81 177.432L90.713 171.157C64.8493 165.546 44.4532 156.18 29.5245 143.058C14.6909 129.841 7.3217 111.822 7.41679 89.0014C7.3217 70.4595 12.2662 54.2471 22.2504 40.3644C32.3296 26.3866 46.2598 15.4991 64.0411 7.70201C81.9175 -0.0951204 102.409 0.174977 125.515 0.174977C149.096 0.174977 159.677 0.174977 190.475 0.174977C221.272 0.174977 261.11 0.174977 281 0.174977C302.815 0.174977 229.905 41.9333 230 61.0458H189.833Z" fill="#0F969C"/>
</g>
<defs>
<filter id="filter0_d_2_8" x="0" y="-7.62939e-06" width="484" height="308.53" filterUnits="userSpaceOnUse" color-interpolation-filters="sRGB">
<feFlood flood-opacity="0" result="BackgroundImageFix"/>
<feColorMatrix in="SourceAlpha" type="matrix" values="0 0 0 0 0 0 0 0 0 0 0 0 0 0 0 0 0 0 127 0" result="hardAlpha"/>
<feOffset dx="10" dy="9"/>
<feGaussianBlur stdDeviation="2"/>
<feComposite in2="hardAlpha" operator="out"/>
<feColorMatrix type="matrix" values="0 0 0 0 0 0 0 0 0 0 0 0 0 0 0 0 0 0 0.4 0"/>
<feBlend mode="normal" in2="BackgroundImageFix" result="effect1_dropShadow_2_8"/>
<feBlend mode="normal" in="SourceGraphic" in2="effect1_dropShadow_2_8" result="shape"/>
</filter>
</defs>
</svg>
